<svg xmlns="http://www.w3.org/2000/svg" width="248.51" height="35" viewBox="0 0 248.51 35"><rect class="svg__rect" x="0" y="0" width="68.3" height="35" fill="#D35B09"/><rect class="svg__rect" x="66.3" y="0" width="182.20999999999998" height="35" fill="#E28848"/><path class="svg__text" d="M16.51 22L13.46 13.47L15.08 13.47L17.22 20.14L19.39 13.47L21.02 13.47L17.95 22L16.51 22ZM26.53 22L25.06 22L25.06 13.47L26.53 13.47L26.53 22ZM30.91 19.42L30.91 19.42L32.39 19.42Q32.39 20.15 32.87 20.55Q33.35 20.95 34.25 20.95L34.25 20.95Q35.02 20.95 35.41 20.63Q35.80 20.32 35.80 19.80L35.80 19.80Q35.80 19.24 35.41 18.94Q35.01 18.63 33.98 18.32Q32.95 18.01 32.34 17.63L32.34 17.63Q31.17 16.90 31.17 15.72L31.17 15.72Q31.17 14.69 32.02 14.02Q32.86 13.35 34.20 13.35L34.20 13.35Q35.09 13.35 35.79 13.68Q36.48 14.01 36.88 14.61Q37.28 15.22 37.28 15.96L37.28 15.96L35.80 15.96Q35.80 15.29 35.38 14.91Q34.97 14.54 34.19 14.54L34.19 14.54Q33.46 14.54 33.06 14.85Q32.66 15.16 32.66 15.71L32.66 15.71Q32.66 16.18 33.09 16.50Q33.52 16.81 34.52 17.10Q35.52 17.40 36.12 17.78Q36.72 18.16 37.00 18.65Q37.29 19.13 37.29 19.79L37.29 19.79Q37.29 20.86 36.47 21.49Q35.65 22.12 34.25 22.12L34.25 22.12Q33.32 22.12 32.55 21.77Q31.77 21.43 31.34 20.83Q30.91 20.22 30.91 19.42ZM43.14 22L41.66 22L41.66 13.47L43.14 13.47L43.14 22ZM49.63 14.66L46.99 14.66L46.99 13.47L53.76 13.47L53.76 14.66L51.10 14.66L51.10 22L49.63 22L49.63 14.66Z" fill="#FFFFFF"/><path class="svg__text" d="M84.46 22L80.49 22L80.49 13.60L84.46 13.60Q85.84 13.60 86.91 14.12Q87.98 14.63 88.57 15.58Q89.15 16.53 89.15 17.80L89.15 17.80Q89.15 19.07 88.57 20.02Q87.98 20.97 86.91 21.48Q85.84 22 84.46 22L84.46 22ZM82.87 15.50L82.87 20.10L84.37 20.10Q85.44 20.10 86.10 19.49Q86.75 18.88 86.75 17.80L86.75 17.80Q86.75 16.72 86.10 16.11Q85.44 15.50 84.37 15.50L84.37 15.50L82.87 15.50ZM93.45 17.80L93.45 17.80Q93.45 16.55 94.06 15.55Q94.66 14.56 95.73 14.00Q96.79 13.43 98.12 13.43L98.12 13.43Q99.45 13.43 100.51 14.00Q101.58 14.56 102.18 15.55Q102.79 16.55 102.79 17.80L102.79 17.80Q102.79 19.05 102.18 20.04Q101.58 21.04 100.52 21.60Q99.45 22.17 98.12 22.17L98.12 22.17Q96.79 22.17 95.73 21.60Q94.66 21.04 94.06 20.04Q93.45 19.05 93.45 17.80ZM95.85 17.80L95.85 17.80Q95.85 18.51 96.15 19.05Q96.45 19.60 96.97 19.90Q97.49 20.20 98.12 20.20L98.12 20.20Q98.76 20.20 99.27 19.90Q99.79 19.60 100.09 19.05Q100.39 18.51 100.39 17.80L100.39 17.80Q100.39 17.09 100.09 16.54Q99.79 16 99.27 15.70Q98.76 15.40 98.12 15.40L98.12 15.40Q97.48 15.40 96.97 15.70Q96.45 16 96.15 16.54Q95.85 17.09 95.85 17.80ZM107.09 17.80L107.09 17.80Q107.09 16.54 107.69 15.54Q108.28 14.55 109.34 13.99Q110.39 13.43 111.71 13.43L111.71 13.43Q112.86 13.43 113.78 13.84Q114.71 14.25 115.32 15.02L115.32 15.02L113.81 16.39Q113.00 15.40 111.83 15.40L111.83 15.40Q111.14 15.40 110.61 15.70Q110.08 16 109.78 16.54Q109.49 17.09 109.49 17.80L109.49 17.80Q109.49 18.51 109.78 19.05Q110.08 19.60 110.61 19.90Q111.14 20.20 111.83 20.20L111.83 20.20Q113.00 20.20 113.81 19.22L113.81 19.22L115.32 20.58Q114.71 21.35 113.79 21.76Q112.86 22.17 111.71 22.17L111.71 22.17Q110.39 22.17 109.34 21.61Q108.28 21.05 107.69 20.05Q107.09 19.06 107.09 17.80ZM119.79 18.26L119.79 18.26L119.79 13.60L122.17 13.60L122.17 18.19Q122.17 20.20 123.76 20.20L123.76 20.20Q125.34 20.20 125.34 18.19L125.34 18.19L125.34 13.60L127.69 13.60L127.69 18.26Q127.69 20.13 126.65 21.15Q125.61 22.17 123.74 22.17L123.74 22.17Q121.86 22.17 120.82 21.15Q119.79 20.13 119.79 18.26ZM134.97 22L132.77 22L132.77 13.60L134.73 13.60L137.68 18.45L140.56 13.60L142.52 13.60L142.54 22L140.36 22L140.34 17.55L138.17 21.17L137.12 21.17L134.97 17.67L134.97 22ZM154.44 22L147.70 22L147.70 13.60L154.29 13.60L154.29 15.44L150.06 15.44L150.06 16.85L153.79 16.85L153.79 18.63L150.06 18.63L150.06 20.17L154.44 20.17L154.44 22ZM161.58 22L159.25 22L159.25 13.60L161.21 13.60L164.92 18.07L164.92 13.60L167.24 13.60L167.24 22L165.29 22L161.58 17.52L161.58 22ZM174.20 15.48L171.61 15.48L171.61 13.60L179.14 13.60L179.14 15.48L176.57 15.48L176.57 22L174.20 22L174.20 15.48ZM184.93 22L182.50 22L186.21 13.60L188.55 13.60L192.27 22L189.80 22L189.14 20.37L185.59 20.37L184.93 22ZM187.36 15.93L186.28 18.61L188.44 18.61L187.36 15.93ZM198.21 15.48L195.63 15.48L195.63 13.60L203.15 13.60L203.15 15.48L200.59 15.48L200.59 22L198.21 22L198.21 15.48ZM209.90 22L207.53 22L207.53 13.60L209.90 13.60L209.90 22ZM214.65 17.80L214.65 17.80Q214.65 16.55 215.25 15.55Q215.86 14.56 216.92 14.00Q217.98 13.43 219.31 13.43L219.31 13.43Q220.64 13.43 221.71 14.00Q222.77 14.56 223.38 15.55Q223.98 16.55 223.98 17.80L223.98 17.80Q223.98 19.05 223.38 20.04Q222.77 21.04 221.71 21.60Q220.65 22.17 219.31 22.17L219.31 22.17Q217.98 22.17 216.92 21.60Q215.86 21.04 215.25 20.04Q214.65 19.05 214.65 17.80ZM217.05 17.80L217.05 17.80Q217.05 18.51 217.35 19.05Q217.65 19.60 218.17 19.90Q218.68 20.20 219.31 20.20L219.31 20.20Q219.95 20.20 220.47 19.90Q220.98 19.60 221.28 19.05Q221.58 18.51 221.58 17.80L221.58 17.80Q221.58 17.09 221.28 16.54Q220.98 16 220.47 15.70Q219.95 15.40 219.31 15.40L219.31 15.40Q218.68 15.40 218.16 15.70Q217.65 16 217.35 16.54Q217.05 17.09 217.05 17.80ZM231.04 22L228.71 22L228.71 13.60L230.67 13.60L234.38 18.07L234.38 13.60L236.70 13.60L236.70 22L234.75 22L231.04 17.52L231.04 22Z" fill="#FFFFFF" x="79.3"/></svg>